<?xml version="1.0"?><svg fill="#000000" xmlns="http://www.w3.org/2000/svg"  viewBox="0 0 128 128" width="30px" height="30px">    <path d="M 64 6 C 48.5 6 33.9 12 23 23 C 11.7 34.3 6 49.1 6 64 C 6 78.9 11.7 93.7 23 105 C 34 116 48.5 122 64 122 C 79.5 122 94.1 116 105 105 C 127.6 82.4 127.6 45.6 105 23 C 94.1 12 79.5 6 64 6 z M 64 12 C 77.9 12 90.900781 17.399219 100.80078 27.199219 C 110.90078 37.399219 116 50.7 116 64 C 116 77.3 110.90078 90.600781 100.80078 100.80078 C 90.900781 110.60078 77.9 116 64 116 C 50.1 116 37.099219 110.60078 27.199219 100.80078 C 6.9992187 80.500781 6.9992188 47.499219 27.199219 27.199219 C 37.099219 17.399219 50.1 12 64 12 z M 64 24 C 53.75 24 43.499219 27.899219 35.699219 35.699219 C 20.099219 51.299219 20.099219 76.600781 35.699219 92.300781 C 51.299219 107.90078 76.600781 107.90078 92.300781 92.300781 C 107.90078 76.700781 107.90078 51.399219 92.300781 35.699219 C 84.500781 27.899219 74.25 24 64 24 z M 74.1875 50.675781 C 76.7 50.675781 79.199609 51.649609 81.099609 53.599609 C 84.899609 57.499609 84.999609 63.7 81.099609 67.5 L 66.5 82.099609 C 65.1 83.499609 62.800391 83.499609 61.400391 82.099609 L 46.900391 67.5 C 43.000391 63.6 43.000391 57.399609 46.900391 53.599609 C 50.800391 49.799609 57.000781 49.699609 60.800781 53.599609 L 64 56.800781 L 67.199219 53.599609 C 69.149219 51.649609 71.675 50.675781 74.1875 50.675781 z"/></svg>