<svg xmlns="http://www.w3.org/2000/svg"  viewBox="0 0 128 128" width="30px" height="30px"><path fill="#fff" d="M64 9A55 55 0 1 0 64 119A55 55 0 1 0 64 9Z" transform="rotate(-45.001 64 64.001)"/><path fill="#ff5576" d="M64 24A40 40 0 1 0 64 104A40 40 0 1 0 64 24Z" transform="rotate(-45.001 64 64.001)"/><path fill="#fff" d="M81.1,53.6L81.1,53.6c-3.9-3.9-10.1-3.9-13.9,0L64,56.8l-3.2-3.2c-3.9-3.9-10.1-3.9-13.9,0h0 c-3.9,3.9-3.9,10.1,0,13.9l14.6,14.6c1.4,1.4,3.7,1.4,5.1,0l14.6-14.6C85,63.7,85,57.4,81.1,53.6z"/><path fill="#444b54" d="M6,64c0-14.9,5.7-29.7,17-41c11-11,25.5-17,41-17s30.1,6,41,17c22.6,22.6,22.6,59.4,0,82h0c0,0,0,0,0,0 c-11,11-25.5,17-41,17s-30.1-6-41-17C11.7,93.7,6,78.9,6,64z M116,64c0-13.3-5.1-26.6-15.2-36.8C90.9,17.4,77.9,12,64,12 s-26.9,5.4-36.8,15.2C7,47.5,7,80.5,27.2,100.8C37.1,110.6,50.1,116,64,116s26.9-5.4,36.8-15.2h0C110.9,90.6,116,77.3,116,64z"/></svg>